<svg xmlns="http://www.w3.org/2000/svg" xmlns:xlink="http://www.w3.org/1999/xlink" enable-background="new 0 0 823 823" viewBox="0 0 823 823" id="Manenjoyingvacation"><defs><path id="a" d="M0 0h823v823H0z" fill="#000000" class="color000000 svgShape"></path></defs><clipPath id="b"><use overflow="visible" xlink:href="#a"></use></clipPath><g clip-path="url(#b)" fill="#000000" class="color000000 svgShape"><path fill="#fe9526" d="M897 439.2c0-.4-.1-.8-.1-1.2-2.4-19.1-16.1-35.3-35.3-40.4-1.4-.4-2.8-.7-4.2-.9-2.5-.4-5-.7-7.5-.7-.5-30.6-22.7-57.5-53.9-62.9-33.6-5.8-65.6 15.3-74 47.7-.9-.2-1.7-.4-2.6-.5-1.9-21-17.7-38.9-39.4-42.7-24.7-4.3-48.1 11.2-54.3 35-.6-.1-1.3-.3-1.9-.4-3.9-.7-7.7-.7-11.3-.1-9.2 1.4-17.4 6.4-22.9 13.7-1.9-.9-4-1.6-6.1-1.9-.9-.2-1.8-.3-2.7-.3-7-10.1-18-17.5-31.1-19.8-12.5-2.2-24.7.8-34.5 7.3-9.3-16.1-25.4-28.1-45.2-31.6-33.6-5.8-65.6 15.3-74 47.7-.5-.1-1.1-.2-1.6-.3-8-6-16.5-9.4-24.7-10.9-4.7-.8-9.4-1-13.9-.5-5.9-18.9-19-35.1-36.7-44.6-7.1-3.8-14.9-6.6-23.2-8l-4.2-.6c4.7-53-32-101.7-85.4-110.9-39.6-6.9-77.9 9.9-100.4 40-3.7-3.1-7.8-5.8-12.1-8.1-7.1-3.8-14.9-6.6-23.2-8l-4.2-.6c4.7-53-32-101.7-85.4-110.9-49.7-8.6-97.3 19.9-114.4 65.4-3.8-1.3-7.6-2.3-11.7-3-2.3-.4-4.5-.7-6.8-.8-.4 0-.8 0-1.2-.1 3.9 50.2 1.3 100-2.3 150 29.5 27.5 54.9 56.2 48.7 68.7-.3.5-.6 1.1-.8 1.7-2.9 6.1-5 12.7-6.2 19.7l-.1.5c-1.3 7.7-.6 15.4 1.8 22.3l619.2 130.4L828.3 634l30.1-174.3 32.3 5.6c2.9-3.6 4.9-8 5.8-12.8l.1-.3c.7-4.4.9-8.8.4-13z" opacity=".33" class="colorffbe55 svgShape"></path><path fill="#fe9526" d="M978 221c-.2-.3-.5-.6-.7-.9-12.2-14.8-32.5-21.2-51.4-15.2-1.3.4-2.7.9-4 1.5-2.4 1-4.6 2.2-6.7 3.4-16.8-25.5-49.9-36.4-79.2-24.2-31.5 13.1-47.2 48-37 79.9-.8.3-1.7.6-2.5.9-12.9-16.7-35.7-23.4-56.1-14.9-23.1 9.6-34.7 35.2-27.1 58.7-.6.2-1.2.4-1.8.7-3.6 1.5-6.8 3.5-9.6 6-7 6.1-11.3 14.7-12 23.8-2.1.3-4.2.8-6.2 1.7-.8.3-1.6.7-2.4 1.2-11.4-4.8-24.5-5.2-36.8-.1-11.7 4.9-20.5 13.9-25.3 24.6-16.5-8.6-36.6-10.1-55.1-2.4-31.5 13.1-47.2 48-37 79.9l-1.5.6c-10-.8-19 .8-26.7 4.1-4.4 1.8-8.5 4.2-12 7-15.1-12.8-34.8-19.5-54.9-18-8 .6-16.1 2.4-23.9 5.7-1.3.6-2.6 1.1-3.9 1.8-24.4-47.3-81.4-68.7-131.5-48-37.1 15.4-60.5 50-63.4 87.5-4.8-.6-9.7-.7-14.6-.4-8 .6-16.1 2.4-23.9 5.7-1.3.6-2.6 1.1-3.9 1.8-24.4-47.3-81.4-68.7-131.5-48-46.6 19.4-71.5 68.8-61.6 116.5-3.8.9-7.7 2.2-11.4 3.7-2.1.9-4.2 1.9-6.2 2.9-.3.2-.7.4-1 .6 30.2 40.3 54.7 83.8 78.4 127.9 39.7 7.5 76.5 18.1 77.9 31.9.1.6.1 1.2.2 1.9.8 6.7 2.6 13.4 5.3 20l.2.5c3.1 7.2 7.8 13.3 13.5 17.9l592.8-221.4 301-125.1L956.4 259l30.2-12.6c.5-4.6-.1-9.4-2-13.9l-.1-.3c-1.7-4.1-3.9-7.9-6.5-11.2z" opacity=".46" class="colorffbe55 svgShape"></path><path fill="#167ffc" d="M1074.2 496.3c-.2-.6-.3-1.2-.5-1.8-8.9-29.2-34.8-51-66.2-53.7-2.2-.2-4.5-.3-6.8-.3-4.1 0-8.1.3-12 .9-9.1-47.8-51.1-83.9-101.6-83.9-54.2 0-98.6 41.7-103 94.7-1.4-.1-2.8-.1-4.3-.1-8.5 0-16.6 1.4-24.2 3.9-4.7 1.6-9.1 3.6-13.3 6-17.1-33.5-51.9-56.5-92.1-56.5-54.2 0-98.6 41.7-103 94.7-1.4-.1-2.8-.1-4.3-.1-8.5 0-16.6 1.4-24.2 3.9-19 6.4-34.7 20.1-43.8 37.7-4.4-1.2-9-1.9-13.8-1.9-8.4 0-17.3 1.9-26.2 6.5h-1.6c-2.8-33.4-30.7-59.6-64.8-59.6-20.1 0-38 9.1-49.9 23.4-8.6-8.1-20.1-13.1-32.8-13.1-13.3 0-25.3 5.4-34 14.2-.9-.1-1.8-.1-2.7-.1-2.2 0-4.4.3-6.4.9-4.2-8.2-11.4-14.5-20.2-17.4-3.5-1.2-7.3-1.8-11.2-1.8-.7 0-1.3 0-2 .1-2-24.5-22.5-43.7-47.6-43.7-22.1 0-40.6 15-46.1 35.3-.9 0-1.8 0-2.7.1-2.8-33.4-30.7-59.6-64.8-59.6-31.7 0-58.1 22.7-63.9 52.8-2.5-.4-5-.6-7.5-.6-1.4 0-2.9.1-4.3.2-19.7 1.7-36 15.4-41.6 33.8-.1.4-.2.7-.3 1.1-1.1 4.1-1.8 8.4-1.8 12.9v.3c0 4.9 1.3 9.6 3.5 13.6H-35V716h326l632.4-23c3.5-6.4 5.6-13.8 5.6-21.7v-.5c0-7.1-1-14-2.8-20.5-.2-.6-.3-1.2-.5-1.8-8.9-29.2-34.8-51-66.2-53.7-2.2-.2-4.5-.3-6.8-.3-4.1 0-8.1.3-12 .9-.9-4.8-2.2-9.5-3.7-14 1.9-5 3-10.4 3-16.1v-.5c0-7.1-1-14-2.8-20.5-.2-.6-.3-1.2-.5-1.8-.4-1.2-.8-2.4-1.2-3.5h235.9c3.5-6.4 5.6-13.8 5.6-21.7v-.5c0-7.1-1-14-2.8-20.5z" class="color2a94f4 svgShape"></path><ellipse cx="411.5" cy="757.2" fill="#ffffff" rx="454" ry="186.2" class="colorffffff svgShape"></ellipse><ellipse cx="432" cy="639" fill="#cccdff" rx="130" ry="45" class="colorcce9ff svgShape"></ellipse><path fill="#fe9526" d="M464.9 363.1s32.2 14.8 50.9-16.7l-10.2-7.4s-30 18.2-55.7-4.8c0 0-5.4 15.9 15 28.9z" class="colorffbe55 svgShape"></path><path fill="#ffe5ca" d="M316.2 253.3s-.1.2-.2.5c-.7 1.8-2.2 8 2.4 17.2.3-.9 8.8-19.2 8.8-19.2M536.7 399.3s48-3.3 43.1 2.6c0 0-1.7 1.9-10.9 2.2-2.3.1-8.2.4-11.8 2.5 0 0-7.1 2.6-9.5 7 0 0 3.8 4.1 5.4 4.7 6.1 2.1 4.6 2.5 4.9 5.8 0 0-8.3-2.1-11.1-2.9 0 0-12.4-6.2-15.4-10.8-3-4.7-4.1-5.8 5.3-11.1z" class="colorffe3ca svgShape"></path><path fill="#167ffc" d="M482.4 345.5s12.1 40.4 52.3 51.4c0 0-2.3 10.1-4.6 16 0 0-39.4-1.7-61-32.9-.1 0-3.4-37.9 13.3-34.5z" class="color2a94f4 svgShape"></path><path fill="#ffe5ca" d="m447.4 545.9-.8 28.6s13.9 5.9 17.8 0v-27l-17-1.6zM403.4 554.4l3.1 32 16.2-5.9.8-9.3-2.3-22.7z" class="colorffe3ca svgShape"></path><path fill="#0b0d70" d="M396 433.3v95l4.4 32.2s14.8 0 26.6-8.1l-4.4-25.8 8.9-72.5 11.8 70.9 1.5 24.2s13.3 6.4 22.2 0l1.5-35.4 1.5-87c-.1.1-68.1-19.3-74 6.5z" class="color0b4870 svgShape"></path><path fill="#0e108c" d="M467 568.8s-16.7 8.2-22.6-6.7l-3.6 43.3s12.3 31.6 33.2 19.5c0 0 9.1-4.3-8.3-25.3l1.3-30.8z" class="color0e538c svgShape"></path><path fill="#0b0d70" d="M475.1 615.6s4.3 5.3 1 13.5c0 0-7.8 8.9-21.9 1.2 0 0-11.6-6.7-15.5-20.3 0 0 .4-6.3 2.1-6.8 0 0 12.2 21.5 19.6 21.4.1.1 16.3 2.1 14.7-9z" class="color0b4870 svgShape"></path><path fill="#0e108c" d="M403.4 575.3s17.4 6.1 21.8-9.5l8.1 42.6s-8.9 32.9-30.9 23.5c0 0-9.5-3.2 5.6-26.2l-4.6-30.4z" class="color0e538c svgShape"></path><path fill="#0b0d70" d="M400.2 622.9s-3.7 5.8.4 13.6c0 0 8.6 7.9 21.9-1.6 0 0 10.8-8.1 13.3-22.1 0 0-1-6.2-2.8-6.5 0 0-9.8 22.8-17.2 23.7-.1.1-16 4.1-15.6-7.1z" class="color0b4870 svgShape"></path><path fill="#53d86a" d="M407.8 423.7s34.3 13.1 48.9 4.3l3.3-85.4-39.5-7.9s-23.1 60-12.7 89z" class="colorf7f7f7 svgShape"></path><path fill="#167ffc" d="M392 364.8s-18.8-11.4-37-30c-6.1-6.2-12.3-13.3-17.6-21-8-11.6-14.2-24.7-16.2-38.6l10.8-12.7s29.1 53.5 66.9 62.2c0-.1 18.3 35.3-6.9 40.1zM451.3 372.1s-7.7 55.4 3.8 66.2c6.7 6.4 38.9-3.4 34.5-9.8-20-29-8.4-82.6-8.4-82.6s-27.8 22.1-29.9 26.2z" class="color2a94f4 svgShape"></path><path fill="#167ffc" d="m403.8 331.3-8.9 10.3s-19.6 63.3-10.7 93.4c0 0 37.6 4.3 35.4-2.9-12.4-39.7-2.5-71.5-2.5-71.5l-13.3-29.3z" class="color2a94f4 svgShape"></path><path fill="#0e108c" d="m459.3 333.1 23.2 12.4s-17.8 27-31.4 26.9l8.2-39.3zM424.7 324.5l-25.8.2s5.2 32.7 17.5 39.1l8.3-39.3z" class="color0e538c svgShape"></path><path fill="#fe9526" d="M432.1 314.9s-21.9 4.4-9.9 27.1c0 0 33.9 18.3 46.6-2.2-.1.1 6.2-39.8-36.7-24.9z" class="colorffbe55 svgShape"></path><path fill="#fcd8b1" d="m432.4 299.1 2.8 31.8s2.4 5.5 14.6 3.3c4.9-.9 9.6-1.7 11.4-7.2l-2.9-30.9-25.9 3z" class="colorfcd2b1 svgShape"></path><path fill="#ffe5ca" d="M400.6 270.3s-8.3 3.9-1.6 22.2l2.4 2 3.5-10.1-4.3-14.1z" class="colorffe3ca svgShape"></path><path fill="#ffe5ca" d="M502.3 258.7s13.7 69.7-58.2 72.1c0 0-56.7-7.3-43.4-46.6 0 0 1.4-20.5 1.8-26.1 1-14.8-3-26.7 23.7-35.1.1-.1 58.4-15.5 76.1 35.7z" class="colorffe3ca svgShape"></path><path fill="#fe9526" d="M398.6 261.2s-1.3-41.4 26.4-44.5c18.2-16.9 49.9-5.6 49.9-5.6 34.8 15.2 33.5 55.5 31.3 73.7-.8 6.4-3.5 5.6-3.5 5.6-1.5-9.8-7.6-11.8-7.6-11.8-10 2.9-39.1-23.6-39.1-23.6-27.1-17.4-44.5-4.2-45.4-5.2-.5 1.7-3-10.2-7.3 16.9 0 0-1.3 25.7-2.9 13.4-.5-4.3-3.1-8.3-1.8-18.9z" class="colorffbe55 svgShape"></path><path fill="#ffe5ca" d="M497.8 281.5s24.7.6 9.2 20.8c0 0-12.3 14.1-19.1 5.4 0 0-2.5-22.5 9.9-26.2z" class="colorffe3ca svgShape"></path><path fill="#fe9526" d="M486.5 264.9s8 15.7 4.4 34.3c0 0 2.9.1 5.8-5.1 2.9-5.1 6.2-12.8 3.7-21 0 0-4-9.2-13.9-8.2z" class="colorffbe55 svgShape"></path><path fill="#9c9de8" d="M409.7 217.5s-10.1 3.8-6.5 13.4c0 0 1 1.8 2.6-.5 0 0 3.8-7 8.2-9.2-.1 0-.1-4.9-4.3-3.7z" class="colore89cc3 svgShape"></path><path fill="#fe9526" d="M430.1 244.7s14.3 20.7 25.4 23.2c0 0-7.3-11.9-9.1-22 0 0-17.3-12-16.3-1.2z" class="colorffbe55 svgShape"></path><path fill="#167ffc" d="M499.7 258.7s8.8 1.7 7.1 15.8c0 0 8.8-17.6-3.9-23.6l-3.2 7.8z" class="color2a94f4 svgShape"></path><path fill="#595bd4" d="m458.5 233-2.4 7.3 38.5 21.2 6.5-4 2.6-8.1z" class="color4d8af0 svgShape"></path><path fill="#0e108c" d="M456.1 240.3c-2.9 10.5 5 22.4 17.7 26.5 12.6 4.1 25.2-1 28.1-11.5 2.9-10.5-5-22.4-17.7-26.5-12.6-4.1-25.2 1-28.1 11.5z" class="color0e538c svgShape"></path><path fill="#167ffc" d="M457.8 235c-2.9 10.5 5 22.4 17.7 26.5 12.6 4.1 25.2-1 28.1-11.5 2.9-10.5-5-22.4-17.7-26.5-12.6-4.1-25.2 1-28.1 11.5z" class="color2a94f4 svgShape"></path><path fill="#cccdff" d="M463.1 236.8c-2.2 8 3.8 17.1 13.5 20.3 8.1 2.6 16.1.4 19.8-5.1.8-1.1 1.3-2.3 1.7-3.7 2.2-8-3.9-17.1-13.5-20.3-6.1-2-12.2-1.2-16.4 1.7-2.4 1.7-4.2 4.1-5.1 7.1z" class="colorcce9ff svgShape"></path><path fill="#53d86a" d="m476.3 237.3 12 20.8 6.4-3.5-13.8-17.7z" class="colorf7f7f7 svgShape"></path><path fill="#167ffc" d="m461.5 228.5-3.8 7.4s-6.2-5.2-17.2-1.8l2.9-6.5s8.4-5.8 18.1.9z" class="color2a94f4 svgShape"></path><path fill="#0e108c" d="m394.9 402.7-10.8 16 2.3 5.1 11.6-18.5zM462.9 402.7l10.8 16-2.3 5.1-11.6-18.5zM533.1 392.6l-6.9 21.1 8.5 1.7 6.9-19.4z" class="color0e538c svgShape"></path><path fill="#00015b" d="M345.3 225.9h21.3l.1-4.7.2-9.9.3-13.8c-11-3.3-15.1 11.5-15.1 11.5l-6.8 16.9z" class="color00455b svgShape"></path><path fill="#0e108c" d="M347.7 225.9H369l.1-4.7.2-9.9.3-13.8c-11-3.3-15.1 11.5-15.1 11.5l-6.8 16.9z" class="color0e538c svgShape"></path><path fill="#cccdff" d="M342.4 255.1s24-5.4 26.9-27.8c.3-2 0-8 0-8h-28.1c-.1 0-9.2 26.1 1.2 35.8z" class="colorcce9ff svgShape"></path><path fill="#cccdff" d="M285.4 219.3h57v35.8h-57z" class="colorcce9ff svgShape"></path><path fill="#0e108c" d="M285.7 219.3s-32.2 4-31.4 23.3c0 0 2.1 12.7 33.2 12.5 0 0 4.2-27.6-1.8-35.8z" class="color0e538c svgShape"></path><path fill="#ffe5ca" d="M329.6 242.4s-6.8-2.4-5.9 10.6c0 0-12.4 13.1-2.4 22.1L330 262v-7.6s1.1-6.1-.4-12z" class="colorffe3ca svgShape"></path><path fill="#0b0d70" d="m367.1 241.3 4.3-.1v1.6s-10.9 5.1-31.6 2.3c0 0-20.7-2.5-33-12l.2-1.6 38.5 9.4 21.6.4z" class="color0b4870 svgShape"></path><path fill="#0e108c" d="M306.9 231.6s2.4 1.5 6.7 3.5c2 .9 4.5 2 7.3 3 12 4.4 30.4 8.4 50.4 3.2l-22.6-6.1-8.1-2.2-5-1.4h-28.7zM334.3 265.3s-9.2 12.7-12.6 14.5l-2-5.8 10.6-14.8 4 6.1z" class="color0e538c svgShape"></path><path fill="#6e70f4" d="m398.5 231.4.4 7.8 43 2.8 4.6-6.5-.6-8.5z" class="color6ea5f4 svgShape"></path><path fill="#0e108c" d="M398.9 239.2c1.1 10.9 12.7 18.4 25.8 16.7 13.1-1.6 22.8-11.8 21.7-22.7-1.1-10.9-12.7-18.4-25.8-16.7-13.1 1.6-22.8 11.8-21.7 22.7z" class="color0e538c svgShape"></path><path fill="#167ffc" d="M398.5 233.6c1.1 10.9 12.7 18.4 25.8 16.7 13.1-1.6 22.8-11.8 21.7-22.7-1.1-10.9-12.7-18.4-25.8-16.7-13.1 1.6-22.8 11.8-21.7 22.7z" class="color2a94f4 svgShape"></path><path fill="#cccdff" d="M404.1 232.9c.9 8.3 9.7 14.1 19.8 12.8 8.4-1 14.9-6.6 16.4-13.3.3-1.3.4-2.7.2-4.1-.9-8.3-9.7-14.1-19.8-12.8-6.3.8-11.7 4.2-14.5 8.7-1.6 2.6-2.4 5.6-2.1 8.7z" class="colorcce9ff svgShape"></path><path fill="#53d86a" d="m417.1 226.6 18.6 14 4.6-6.1-19.1-10.3z" class="colorf7f7f7 svgShape"></path><path fill="#fe9526" d="M293.2 165.6c-3.3 1.6-5 3.3-6.5 6.5-.5 1-1.8 1-2.3 0-1.6-3.3-3.3-5-6.5-6.5-1-.5-1-1.8 0-2.3 3.3-1.6 5-3.3 6.5-6.5.5-1 1.8-1 2.3 0 1.6 3.3 3.3 5 6.5 6.5 1 .5 1 1.9 0 2.3zM175.5 300.9c5.9 2.8 9 6 11.9 11.9.9 1.8 3.4 1.8 4.2 0 2.8-5.9 6-9 11.9-11.9 1.8-.9 1.8-3.4 0-4.2-5.9-2.8-9-6-11.9-11.9-.9-1.8-3.4-1.8-4.2 0-2.8 5.9-6 9-11.9 11.9-1.8.8-1.8 3.3 0 4.2zM207.2 276.2c3.3 1.6 5 3.3 6.5 6.5.5 1 1.8 1 2.3 0 1.6-3.3 3.3-5 6.5-6.5 1-.5 1-1.8 0-2.3-3.3-1.6-5-3.3-6.5-6.5-.5-1-1.8-1-2.3 0-1.6 3.3-3.3 5-6.5 6.5-1 .4-1 1.8 0 2.3zM690.7 256.9c-5.9 2.8-9 6-11.9 11.9-.9 1.8-3.4 1.8-4.2 0-2.8-5.9-6-9-11.9-11.9-1.8-.9-1.8-3.4 0-4.2 5.9-2.8 9-6 11.9-11.9.9-1.8 3.4-1.8 4.2 0 2.8 5.9 6 9 11.9 11.9 1.7.8 1.7 3.3 0 4.2zM659 232.2c-3.3 1.6-5 3.3-6.5 6.5-.5 1-1.8 1-2.3 0-1.6-3.3-3.3-5-6.5-6.5-1-.5-1-1.8 0-2.3 3.3-1.6 5-3.3 6.5-6.5.5-1 1.8-1 2.3 0 1.6 3.3 3.3 5 6.5 6.5 1 .4 1 1.8 0 2.3zM596.2 284.6c-3.3 1.6-5 3.3-6.5 6.5-.5 1-1.8 1-2.3 0-1.6-3.3-3.3-5-6.5-6.5-1-.5-1-1.8 0-2.3 3.3-1.6 5-3.3 6.5-6.5.5-1 1.8-1 2.3 0 1.6 3.3 3.3 5 6.5 6.5 1 .5 1 1.9 0 2.3z" class="colorffbe55 svgShape"></path></g></svg>